<svg xmlns="http://www.w3.org/2000/svg" viewBox="0 0 400 300" role="img" aria-label="Azmarino">
  <defs>
    <linearGradient id="bg" x1="0" y1="0" x2="1" y2="1">
      <stop offset="0" stop-color="#B91C1C"/>
      <stop offset="1" stop-color="#7F1010"/>
    </linearGradient>
    <linearGradient id="bag" x1="0" y1="0" x2="0" y2="1">
      <stop offset="0" stop-color="#FFFFFF"/>
      <stop offset="1" stop-color="#F4E6D0"/>
    </linearGradient>
    <linearGradient id="gold" x1="0" y1="0" x2="0" y2="1">
      <stop offset="0" stop-color="#F6D98A"/>
      <stop offset="1" stop-color="#C99A3A"/>
    </linearGradient>
  </defs>

  <rect width="400" height="300" fill="url(#bg)"/>

  <g opacity="0.9" fill="#FFFFFF">
    <circle cx="50" cy="50" r="1.5"/>
    <circle cx="80" cy="40" r="1"/>
    <circle cx="340" cy="60" r="1.2"/>
    <circle cx="360" cy="250" r="1.4"/>
    <circle cx="60" cy="260" r="1"/>
  </g>

  <g transform="translate(200 160) rotate(-6) translate(-90 -90)">
    <path d="M55 60 Q55 20 90 20 Q125 20 125 60" fill="none" stroke="#B91C1C" stroke-width="9" stroke-linecap="round"/>
    <path d="M75 60 Q75 35 95 35 Q115 35 115 60" fill="none" stroke="#E5A441" stroke-width="5" stroke-linecap="round"/>

    <path d="M20 58 L160 58 L168 178 L12 178 Z" fill="url(#bag)" stroke="url(#gold)" stroke-width="5" stroke-linejoin="round"/>
    <path d="M30 66 L152 66 L158 170 L22 170 Z" fill="none" stroke="#B91C1C" stroke-width="2.5"/>

    <g transform="translate(56 86)" fill="#B91C1C">
      <path d="M0 6 L8 6 L14 36 L60 36 L64 14 L18 14" fill="none" stroke="#B91C1C" stroke-width="5" stroke-linejoin="round" stroke-linecap="round"/>
      <circle cx="22" cy="46" r="5"/>
      <circle cx="52" cy="46" r="5"/>
      <path d="M18 18 L60 18 M22 24 L60 24 M24 30 L58 30" stroke="#B91C1C" stroke-width="2"/>
    </g>

    <text x="90" y="158" text-anchor="middle" font-family="Georgia, 'Times New Roman', serif" font-weight="900" font-size="22" fill="#B91C1C" letter-spacing="1">Azmarino</text>
  </g>
</svg>
